<svg width="374" height="359" viewBox="0 0 374 359" fill="none" xmlns="http://www.w3.org/2000/svg">
<path d="M241.028 0.00384821C235.909 0.0365063 231.194 0.230384 226.559 0.979815C226.541 0.983151 226.523 0.988348 226.506 0.991186C225.86 1.09386 225.81 1.09708 225.204 1.19206C213.07 3.18265 202.045 7.7321 190.575 13.6769C190.567 13.681 190.558 13.6843 190.55 13.6882L190.539 13.6939C190.229 13.8536 189.83 14.0557 189.521 14.2151C182.372 17.9825 175.49 22.8848 168.923 28.1989L168.906 28.2121L168.898 28.2178L168.883 28.2311C168.869 28.2425 168.855 28.2542 168.841 28.2652L167.426 29.3814C167.139 29.6192 167.108 30.0817 167.466 30.365C167.721 30.5662 167.981 30.7667 168.238 30.9657L168.255 30.9809C171.405 33.4358 174.319 36.0149 177.124 38.673C177.933 39.4302 178.754 40.1891 179.594 40.9623C179.597 40.9645 179.6 40.9676 179.602 40.9698C183.473 44.5384 187.191 48.2474 190.743 52.3214C190.951 52.557 191.185 52.8216 191.424 53.0965C195.587 57.8214 199.377 62.7247 203.011 67.5995L203.83 68.693C203.838 68.7027 203.846 68.7116 203.853 68.7214L203.866 68.7404C207.586 73.7093 211.184 78.8031 214.542 84.1815L214.544 84.1853C215.318 85.4267 216.106 86.662 216.923 87.9489L216.946 87.9868C219.608 92.1905 222.235 96.4868 224.718 100.928L225.774 102.84L225.791 102.871C225.89 103.057 225.993 103.245 226.106 103.453C226.219 103.659 226.345 103.89 226.473 104.129C226.475 104.132 226.477 104.135 226.479 104.139C234.411 118.967 238.913 136.5 233.873 154.372L233.85 154.449C233.847 154.462 233.843 154.475 233.839 154.487L233.816 154.565L233.809 154.586C230.214 165.962 223.388 174.427 212.8 180.131C212.791 180.136 212.782 180.142 212.773 180.147L212.724 180.171L212.699 180.184L211.949 180.56L211.932 180.569C206.283 183.331 202.261 188.272 202.856 193.749C203.304 197.874 204.174 201.647 205.722 204.93L205.724 204.934L205.856 205.217L205.941 205.431L206.039 205.726C207.98 211.558 206.209 216.633 205.133 219.735C205.017 220.086 204.878 220.513 204.744 220.914C204.31 222.216 203.871 223.51 203.442 224.778L201.226 231.371C199.375 236.943 198.568 239.68 198.315 241.56C198.212 242.323 198.216 242.709 198.332 243.232C198.427 243.661 198.6 244.19 198.909 245.005C199.143 245.62 199.634 246.107 200.286 246.2C204.354 246.776 209.21 245.86 214.665 243.738C220.663 241.404 226.544 237.957 231.758 234.787C235.438 232.501 239.001 230.112 242.47 227.577L243.949 226.481L243.747 226.658C243.816 226.588 243.89 226.524 243.968 226.466L245.428 225.378C249.546 222.299 253.627 219.14 257.7 215.935C277.818 200.102 299.134 187.252 327.82 189.787L329.191 189.919L329.235 189.923L329.307 189.933L329.356 189.938C336.113 190.781 342.554 192.451 348.821 195.238C348.985 195.311 349.178 195.238 349.251 195.074C351.005 191.062 351.411 186.027 350.896 180.084C350.38 174.116 349.043 168.127 347.847 162.073C347.845 162.062 347.84 162.052 347.838 162.041C347.762 161.657 347.698 161.322 347.626 160.968C347.626 160.967 347.627 160.966 347.628 160.965C347.629 160.965 347.63 160.964 347.629 160.962C347.627 160.949 347.625 160.936 347.623 160.923C347.622 160.922 347.621 160.921 347.62 160.922C347.619 160.922 347.618 160.922 347.618 160.921C345.986 152.559 344.203 144.212 342.373 135.826L342.354 135.73C342.097 134.539 341.844 133.369 341.587 132.202C341.587 132.201 341.587 132.201 341.587 132.2C341.588 132.199 341.588 132.199 341.588 132.198C341.587 132.194 341.584 132.19 341.583 132.186C333.507 95.0832 329.598 77.186 325.675 65.6059C321.966 54.6582 318.383 49.7066 310.085 38.3376C310.076 38.3244 310.066 38.3112 310.057 38.2978L310.042 38.2731C309.563 37.6027 309.553 37.594 309.085 36.9409C303.022 28.6338 296.286 21.3995 288.289 15.4742C288.288 15.4737 288.287 15.4738 288.287 15.4743C288.286 15.4749 288.285 15.4749 288.285 15.4744L288.268 15.4609C288.267 15.4605 288.267 15.4597 288.268 15.4592C288.268 15.4587 288.268 15.4579 288.268 15.4574C288.254 15.4479 288.238 15.4398 288.225 15.4298C287.853 15.1491 287.473 14.8623 287.085 14.5676C277.676 7.65039 266.227 2.78275 254.802 0.998766L254.77 0.994976C254.738 0.990778 254.706 0.985623 254.674 0.979815L254.645 0.972235C254.183 0.893264 253.738 0.819124 253.285 0.74315C253.284 0.743058 253.284 0.742383 253.284 0.741988C253.285 0.741591 253.285 0.740912 253.284 0.740824C250.076 0.230767 246.885 0.0271991 243.482 0.00195312L241.028 0.00384821Z" fill="#F6543E" fill-opacity="0.92"/>
<path d="M352.015 222.873C342.182 211.964 329.246 209.143 315.503 211.366C301.527 213.628 287.291 221.099 276.674 229.893C276.666 229.899 276.658 229.905 276.65 229.912C274.733 231.492 272.796 233.02 270.845 234.511L268.885 235.993C267.126 237.313 265.394 238.646 263.681 240.001C263.679 240.003 263.677 240.005 263.674 240.007C255.385 246.547 245.274 254.006 234.27 259.534C223.297 265.046 210.847 268.94 198.022 267.613L197.793 267.59C197.739 267.584 197.685 267.575 197.632 267.565L197.409 267.523L197.401 267.522C197.216 267.486 197.033 267.447 196.851 267.408C196.353 269.248 195.819 271.073 195.253 272.89C195.084 273.442 194.914 273.993 194.746 274.541C194.578 275.088 194.416 275.62 194.25 276.161L194.248 276.165C194.244 276.18 194.238 276.196 194.233 276.211L192.328 282.326C190.855 287.067 189.558 291.795 188.458 296.598C188.454 296.615 188.451 296.631 188.447 296.649C188.339 297.103 188.236 297.552 188.118 298.066C183.817 317.416 188.272 337.761 193.126 358.829H296.856C296.813 358.514 296.769 358.198 296.716 357.879C296.715 357.87 296.712 357.86 296.711 357.851L296.707 357.83L296.705 357.817C296.643 357.422 296.574 356.995 296.507 356.562L296.508 356.56C296.29 355.211 296.074 353.879 295.854 352.554L295.845 352.507L295.843 352.489C295.684 351.488 295.548 350.65 295.383 349.611C295.381 349.601 295.383 349.59 295.381 349.581C295 347.202 294.609 344.827 294.218 342.449L294.214 342.43L294.212 342.419C294.121 341.848 294.028 341.274 293.934 340.696C293.841 340.125 293.748 339.542 293.654 338.96C293.052 335.267 292.439 331.566 291.825 327.863C290.873 322.116 289.925 316.37 288.978 310.621C288.977 310.611 288.978 310.6 288.976 310.589C288.687 308.852 288.384 307.017 288.099 305.3L288.101 305.298C288.1 305.296 288.097 305.293 288.097 305.291C287.459 301.417 286.822 297.539 286.188 293.66L286.19 293.659L286.188 293.657L286.187 293.647C286.103 293.127 286.018 292.607 285.931 292.078C285.845 291.553 285.756 291.014 285.668 290.473C285.667 290.464 285.668 290.454 285.666 290.444C285.459 289.178 285.247 287.891 285.042 286.609L285.044 286.607C284.968 286.159 284.957 286.113 284.87 285.595L284.874 285.593C284.872 285.58 284.868 285.568 284.866 285.555L284.864 285.557C284.861 285.536 284.856 285.514 284.853 285.493L284.855 285.485C284.587 283.837 284.297 282.195 284.32 280.507C284.337 279.213 284.535 277.961 284.766 276.728L285.001 275.5L285.577 272.509C285.693 271.91 286.082 271.404 286.62 271.137L286.86 271.039L289.741 270.063L289.761 270.057L290.238 269.902L290.266 269.892L291.242 269.619C293.472 269.064 295.392 269.051 297.422 269.231L298.886 269.36C299.153 269.383 299.411 269.463 299.645 269.591L299.87 269.735L301.05 270.611C305.464 273.883 306.209 278.241 306.649 280.651C306.723 281.038 306.792 281.399 306.864 281.763L306.887 281.871L306.889 281.879C307.707 286.231 308.327 290.602 308.93 294.763C309.727 300.217 310.615 305.66 311.574 311.108C311.575 311.114 311.577 311.12 311.578 311.125C312.278 315.118 312.963 319.112 313.638 323.104V323.108L315.633 335.076L315.635 335.081C315.726 335.633 315.814 336.166 315.906 336.711L315.91 336.741C316.779 342.016 317.653 347.343 318.452 352.696C318.503 353.034 318.558 353.397 318.613 353.776C318.862 355.47 319.086 357.164 319.301 358.846L350.477 358.938C353.919 358.953 357.357 358.963 360.797 358.963H360.816C362.642 358.968 364.479 358.974 366.316 358.984C368.02 358.993 369.726 358.996 371.418 358.991H371.437C372.186 358.991 372.961 358.996 373.687 359.001L373.701 358.205L373.742 353.374V353.329L373.78 349.848C373.818 346.401 373.843 342.948 373.858 339.495V339.491L373.871 336.518V336.512L373.943 323.038C374.087 293.582 374.023 278.096 372.974 267.793C371.853 256.785 369.697 252.207 364.563 241.392C364.559 241.384 364.554 241.376 364.55 241.368C364.395 241.038 364.248 240.715 364.103 240.397L364.105 240.395C361.178 234.109 357.701 228.941 352.992 223.984L352.924 223.912C352.908 223.895 352.892 223.878 352.877 223.861L352.811 223.785L352.807 223.781L352.015 222.873Z" fill="#171717"/>
<path d="M163.277 49.2071C163.2 49.4695 163.131 49.7736 162.958 50.5275L162.953 50.5445C162.843 51.0014 162.734 51.4607 162.619 51.9331C161.95 55.5407 161.786 59.119 161.786 62.8951V64.3995C161.805 67.2754 161.958 70.0555 162.334 72.8741V72.8792C163.261 80.0248 163.997 88.3375 160.789 95.575C160.659 95.8809 160.518 96.198 160.392 96.4882C158.491 100.823 156.337 105.013 154.083 109.125C152.739 111.605 151.817 113.706 151.822 115.997C151.823 116.712 152.043 117.412 152.443 118.003C153.076 118.939 153.812 119.61 154.85 120.273C155.293 120.557 155.797 120.729 156.317 120.813L156.356 120.82L156.394 120.826C157.234 121.001 157.979 121.208 158.708 121.549C159.442 121.892 160.086 122.336 160.774 122.908C160.954 123.058 161.102 123.243 161.21 123.45C162.789 126.516 163.234 130.182 163.784 133.027C163.979 133.929 164.172 134.828 164.369 135.722L164.371 135.729C164.764 137.545 165.152 139.36 165.536 141.181C166.237 144.488 167.047 147.77 167.905 151.063C168.136 151.959 168.364 152.857 168.586 153.758C169.913 158.917 170.511 161.2 171.178 162.55C171.714 163.633 172.219 164.003 173.993 165.182C180.281 168.853 188.817 169.08 196.117 167.266C203.923 164.79 211.511 160.898 215.487 154.069C220.397 144.286 219.913 132.861 216.487 122.402C212.911 112.08 206.877 102.778 200.757 93.4811L200.754 93.476C200.423 92.9692 200.093 92.4616 199.752 91.9409C190.675 78.1491 180.503 64.4947 168.501 53.3123C168.5 53.3118 168.499 53.3118 168.499 53.3123C168.498 53.3128 168.498 53.3128 168.497 53.3123C168.252 53.0855 168.013 52.8592 167.77 52.63C166.366 51.3494 164.959 50.1918 163.445 49.1505C163.384 49.1088 163.298 49.1366 163.277 49.2071Z" fill="#E9B998"/>
<path d="M32.2582 137.244C31.7536 137.424 31.3424 137.8 31.1168 138.287L13.1605 177.026C12.8498 177.696 12.9329 178.483 13.3767 179.073L37.0865 210.594C37.6122 211.293 38.5305 211.569 39.3535 211.275L81.3095 196.272C81.814 196.092 82.2253 195.716 82.4509 195.229L100.407 156.49C100.718 155.82 100.635 155.033 100.191 154.443L76.4812 122.921C75.9555 122.222 75.0372 121.947 74.2142 122.241L32.2582 137.244Z" fill="#53402F"/>
<path d="M93.4099 232.72L73.3523 239.709C75.566 248.261 77.1681 256.954 78.8408 265.644C82.4897 284.607 86.165 303.544 90.7249 322.304C90.8829 322.951 91.0409 323.598 91.1988 324.267C94.0001 335.732 97.7386 346.866 101.256 358.134C128.363 358.134 155.469 358.134 183.397 358.134C182.75 354.187 182.086 350.284 181.281 346.374C181.081 345.38 180.875 344.38 180.675 343.385C180.57 342.877 180.47 342.363 180.359 341.834C177.332 326.807 175.273 311.956 174.446 296.634C173.783 297.132 173.119 297.629 172.456 298.126C172.087 298.405 171.719 298.677 171.339 298.966C169.934 300.089 168.717 301.346 167.475 302.651C166.574 303.565 165.642 304.394 164.668 305.228C161.425 308.095 159.666 311.542 155.469 314.378C151.241 317.237 151.184 315.484 144.563 314.378C139.045 309.956 137.677 311.865 134.823 305.956C134.671 305.629 134.513 305.309 134.349 304.972C133.918 304.079 133.486 303.186 133.054 302.292C132.296 300.859 131.812 300.036 130.269 299.496C129.663 299.346 129.663 299.346 129.047 299.191C128.594 299.068 128.141 298.95 127.673 298.827C127.188 298.699 126.704 298.576 126.204 298.442C113.082 294.779 102.219 286.939 95.3164 274.853C89.6245 263.836 88.2028 249.804 91.6095 237.803C92.1502 236.082 92.7504 234.386 93.4099 232.72Z" fill="#171717"/>
<path d="M105.011 180.01C89.6043 171.101 89.6043 171.101 81.8693 175.106C77.7095 177.54 74.1764 180.406 70.717 183.796C70.38 184.128 70.043 184.454 69.6955 184.796C66.1939 188.508 63.1715 193.572 62.9872 198.808C63.6191 207.198 65.7411 215.279 68.358 223.231C69.1426 225.616 69.8956 228.012 70.6538 230.408C70.8012 230.873 70.9487 231.338 71.1014 231.814C71.9241 234.43 72.6679 237.063 73.3531 239.71L93.4107 232.72C98.1466 220.752 105.937 210.314 116.632 203.155C118.696 201.749 120.276 200.647 121.266 198.235C121.087 193.246 118.47 190.198 115.063 186.904C112.309 184.385 109.202 182.459 105.996 180.588C105.669 180.401 105.348 180.208 105.011 180.01Z" fill="#E9B998"/>
<path d="M113.944 211.568C113.439 211.748 113.028 212.124 112.802 212.611L94.8461 251.35C94.5353 252.02 94.6185 252.807 95.0622 253.397L118.772 284.919C119.298 285.618 120.216 285.893 121.039 285.599L162.995 270.596C163.5 270.416 163.911 270.04 164.136 269.553L182.093 230.814C182.403 230.144 182.32 229.357 181.877 228.767L158.167 197.246C157.641 196.547 156.723 196.271 155.9 196.566L113.944 211.568Z" fill="#53402F"/>
</svg>
